#!OML:ASF E:\inclinewalkrobotboard\Project 1\Capture day 1\Session 1\subject1.ASF
:FULLY-SPECIFIED
:DEGREES
320
root 8.55088 22.3951 -6.33107 -174.446 -0.149656 178.972
lowerback -0.00793916 0.533165 -4.65868
upperback 4.59755 0.452607 3.24149
thorax 4.71335 -0.146541 6.01811
lowerneck -7.71932 1.91184 -5.88068
upperneck 32.1032 -1.32976 5.76685
head 11.7682 -1.77939 2.79727
rclavicle 5.56597e-015 3.10104e-014
rhumerus -26.4978 -18.9867 -79.5356
rradius 28.0733
rwrist 4.00524
rhand -18.4367 -36.9297
rfingers 7.12502
rthumb 7.84885 -66.764
lclavicle 5.56597e-015 3.10104e-014
lhumerus -34.7435 18.7752 79.9667
lradius 15.2792
lwrist -32.6626
lhand -23.4711 -23.4517
lfingers 7.12502
lthumb 2.98811 6.5071
rfemur -12.3628 3.50283 22.2633
rtibia 14.2935
rfoot -15.2097 -1.33446
rtoes -19.549
lfemur -35.3855 -2.23895 -20.3284
ltibia 57.5519
lfoot -13.9577 6.39634
ltoes -62.0845
321
root 8.54869 22.4082 -6.49775 -174.669 0.0230811 179.072
lowerback 0.00654792 0.767659 -4.40412
upperback 4.70088 0.756853 3.15444
thorax 4.77244 0.0108304 5.7922
lowerneck -7.56333 1.90185 -5.53471
upperneck 32.1455 -1.3449 5.46956
head 11.7542 -1.78524 2.62138
rclavicle -6.95746e-015 -3.18055e-014
rhumerus -25.2681 -17.3756 -80.8157
rradius 29.7559
rwrist 1.94727
rhand -18.4672 -36.1208
rfingers 7.12502
rthumb 7.81943 -65.9562
lclavicle -6.95746e-015 -3.18055e-014
lhumerus -35.4423 19.3228 79.0511
lradius 15.1181
lwrist -32.8385
lhand -22.7007 -22.444
lfingers 7.12502
lthumb 3.73212 7.50303
rfemur -11.0347 3.06853 22.3873
rtibia 13.5313
rfoot -15.5606 -0.662101
rtoes -17.0563
lfemur -35.8904 -2.82228 -19.7149
ltibia 53.8921
lfoot -15.1217 6.72445
ltoes -61.6716
322
root 8.5637 22.4153 -6.62856 -174.487 -0.145649 178.932
lowerback 0.219019 0.894448 -4.65562
upperback 4.50467 0.950947 3.06143
thorax 4.41814 0.125122 5.83742
lowerneck -7.34765 1.74136 -5.53155
upperneck 32.0433 -1.64344 5.62044
head 11.6908 -1.90453 2.64029
rclavicle 9.34288e-015 4.05521e-014
rhumerus -24.3739 -15.7174 -81.9342
rradius 31.5103
rwrist 0.252476
rhand -18.8257 -35.6311
rfingers 7.12502
rthumb 7.47342 -65.4791
lclavicle 9.34288e-015 4.05521e-014
lhumerus -36.2838 19.9838 77.9488
lradius 14.722
lwrist -33.8273
lhand -23.314 -22.4662
lfingers 7.12502
lthumb 3.13987 7.49042
rfemur -10.4592 2.67693 22.2746
rtibia 13.1203
rfoot -15.8992 -0.509546
rtoes -17.3043
lfemur -37.0171 -3.60101 -19.1945
ltibia 50.3328
lfoot -15.6497 6.61054
ltoes -61.6791
323
root 8.55487 22.4267 -6.80264 -174.45 0.694555 178.811
lowerback -0.131852 0.945688 -4.65629
upperback 4.55746 1.51872 2.82891
thorax 4.61696 0.608211 5.63657
lowerneck -7.11229 1.73598 -5.87401
upperneck 32.0079 -1.77722 6.10638
head 11.6395 -1.96154 2.8665
rclavicle 5.76476e-015 -2.54444e-014
rhumerus -23.6368 -13.9453 -83.0368
rradius 33.2844
rwrist -1.22507
rhand -18.8523 -35.6312
rfingers 7.12502
rthumb 7.44775 -65.4801
lclavicle 5.76476e-015 -2.54444e-014
lhumerus -37.2174 20.5817 76.8515
lradius 14.5513
lwrist -34.7068
lhand -23.9111 -23.1162
lfingers 7.12502
lthumb 2.56317 6.84814
rfemur -9.79874 2.42818 22.052
rtibia 12.9058
rfoot -16.2683 0.494333
rtoes -17.0199
lfemur -37.1285 -3.80351 -18.6664
ltibia 45.8178
lfoot -15.6544 6.52355
ltoes -61.7342
324
root 8.55654 22.438 -6.94659 -174.464 0.707944 178.711
lowerback -0.0672328 0.987372 -4.70293
upperback 4.59178 1.57793 2.68193
thorax 4.61082 0.638112 5.50871
lowerneck -7.69818 1.67465 -5.96113
upperneck 32.5372 -1.88157 6.05314
head 11.9831 -2.03559 2.8584
rclavicle 7.55382e-015 1.35174e-014
rhumerus -22.6811 -12.3183 -84.1694
rradius 34.7703
rwrist -2.17976
rhand -18.4654 -36.9817
rfingers 7.12502
rthumb 7.8212 -66.817
lclavicle 7.55382e-015 1.35174e-014
lhumerus -37.9527 21.4354 75.8066
lradius 14.4899
lwrist -35.4768
lhand -23.9115 -23.1133
lfingers 7.12502
lthumb 2.56281 6.85106
rfemur -8.99195 2.1391 21.9458
rtibia 12.5182
rfoot -16.6238 0.749093
rtoes -16.7198
lfemur -37.2828 -4.55922 -18.1064
ltibia 41.5323
lfoot -15.2316 5.76934
ltoes -61.8038
325
root 8.55634 22.4462 -7.09169 -174.443 0.758354 178.655
lowerback -0.0721335 1.04959 -4.73013
upperback 4.67978 1.67146 2.55928
thorax 4.69668 0.683204 5.40042
lowerneck -7.49684 1.90277 -5.6174
upperneck 32.3409 -1.42582 5.65269
head 11.825 -1.81973 2.69839
rclavicle -8.15017e-015 -7.15625e-015
rhumerus -21.5502 -10.7328 -85.2031
rradius 35.8792
rwrist -2.67494
rhand -18.0798 -38.8009
rfingers 7.12502
rthumb 8.19328 -68.6221
lclavicle -8.15017e-015 -7.15625e-015
lhumerus -38.3513 22.1322 75.0046
lradius 14.3878
lwrist -35.9441
lhand -23.4088 -22.4338
lfingers 7.12502
lthumb 3.04835 7.52414
rfemur -8.27167 2.08288 21.8989
rtibia 12.2314
rfoot -17.0386 0.77259
rtoes -16.9269
lfemur -37.4102 -5.23082 -17.5364
ltibia 37.5938
lfoot -14.7189 4.92333
ltoes -61.7946
326
root 8.55562 22.4467 -7.23747 -174.321 0.856792 178.622
lowerback -0.160443 1.10289 -4.78931
upperback 4.70107 1.74927 2.46046
thorax 4.76076 0.717926 5.33578
lowerneck -7.09869 1.9754 -5.53821
upperneck 32.2354 -1.44925 5.85259
head 11.7013 -1.81175 2.75241
rclavicle 4.57205e-015 -1.51076e-014
rhumerus -20.5311 -9.00788 -86.0864
rradius 36.699
rwrist -3.00487
rhand -18.1506 -38.7424
rfingers 7.12502
rthumb 8.12498 -68.5662
lclavicle 4.57205e-015 -1.51076e-014
lhumerus -38.7964 22.6985 74.2324
lradius 14.3088
lwrist -36.3514
lhand -22.7872 -22.0845
lfingers 7.12502
lthumb 3.64863 7.86399
rfemur -7.77365 1.96756 21.8789
rtibia 12.1406
rfoot -17.5234 0.85388
rtoes -17.6345
lfemur -37.6059 -5.79988 -16.996
ltibia 34.1165
lfoot -14.2131 4.24393
ltoes -61.9852
